<mxfile host="app.diagrams.net" modified="2022-06-20T14:54:49.208Z" agent="5.0 (Windows NT 10.0; Win64; x64) AppleWebKit/537.36 (KHTML, like Gecko) Chrome/102.0.0.0 Safari/537.36" etag="_NQt-Z02iaAUwi4H7eWC" version="20.0.1" type="github">
  <diagram id="SHVEITlpDU9uxOcRz8Sh" name="Page-1">
    <mxGraphModel dx="893" dy="541" grid="1" gridSize="10" guides="1" tooltips="1" connect="1" arrows="1" fold="1" page="1" pageScale="1" pageWidth="827" pageHeight="1169" math="0" shadow="0">
      <root>
        <mxCell id="0" />
        <mxCell id="1" parent="0" />
        <mxCell id="O0U2v2NHdfMaeUgbh2aC-2" style="edgeStyle=orthogonalEdgeStyle;rounded=0;orthogonalLoop=1;jettySize=auto;html=1;entryX=0.5;entryY=0;entryDx=0;entryDy=0;" edge="1" parent="1" source="O0U2v2NHdfMaeUgbh2aC-1" target="O0U2v2NHdfMaeUgbh2aC-3">
          <mxGeometry relative="1" as="geometry">
            <mxPoint x="700" y="130" as="targetPoint" />
          </mxGeometry>
        </mxCell>
        <mxCell id="O0U2v2NHdfMaeUgbh2aC-1" value="start" style="strokeWidth=2;html=1;shape=mxgraph.flowchart.terminator;whiteSpace=wrap;" vertex="1" parent="1">
          <mxGeometry x="650" y="60" width="100" height="60" as="geometry" />
        </mxCell>
        <mxCell id="O0U2v2NHdfMaeUgbh2aC-4" style="edgeStyle=orthogonalEdgeStyle;rounded=0;orthogonalLoop=1;jettySize=auto;html=1;" edge="1" parent="1" source="O0U2v2NHdfMaeUgbh2aC-3" target="O0U2v2NHdfMaeUgbh2aC-5">
          <mxGeometry relative="1" as="geometry">
            <mxPoint x="700" y="250" as="targetPoint" />
          </mxGeometry>
        </mxCell>
        <mxCell id="O0U2v2NHdfMaeUgbh2aC-3" value="int list[8] = { 8,1,4,2,7,6,3,5 };&#xa;	shellSort(list,8);&#xa;	return 0;" style="rounded=1;whiteSpace=wrap;html=1;absoluteArcSize=1;arcSize=14;strokeWidth=2;" vertex="1" parent="1">
          <mxGeometry x="610" y="140" width="180" height="60" as="geometry" />
        </mxCell>
        <mxCell id="O0U2v2NHdfMaeUgbh2aC-5" value="end" style="strokeWidth=2;html=1;shape=mxgraph.flowchart.terminator;whiteSpace=wrap;" vertex="1" parent="1">
          <mxGeometry x="650" y="220" width="100" height="60" as="geometry" />
        </mxCell>
        <mxCell id="O0U2v2NHdfMaeUgbh2aC-7" style="edgeStyle=orthogonalEdgeStyle;rounded=0;orthogonalLoop=1;jettySize=auto;html=1;" edge="1" parent="1" source="O0U2v2NHdfMaeUgbh2aC-6" target="O0U2v2NHdfMaeUgbh2aC-8">
          <mxGeometry relative="1" as="geometry">
            <mxPoint x="125" y="130" as="targetPoint" />
          </mxGeometry>
        </mxCell>
        <mxCell id="O0U2v2NHdfMaeUgbh2aC-6" value="void shellSort(int* v, int size)" style="rounded=1;whiteSpace=wrap;html=1;absoluteArcSize=1;arcSize=14;strokeWidth=2;" vertex="1" parent="1">
          <mxGeometry x="30" y="30" width="190" height="50" as="geometry" />
        </mxCell>
        <mxCell id="O0U2v2NHdfMaeUgbh2aC-9" style="edgeStyle=orthogonalEdgeStyle;rounded=0;orthogonalLoop=1;jettySize=auto;html=1;entryX=0.5;entryY=0;entryDx=0;entryDy=0;entryPerimeter=0;" edge="1" parent="1" source="O0U2v2NHdfMaeUgbh2aC-8" target="O0U2v2NHdfMaeUgbh2aC-10">
          <mxGeometry relative="1" as="geometry">
            <mxPoint x="125" y="180" as="targetPoint" />
          </mxGeometry>
        </mxCell>
        <mxCell id="O0U2v2NHdfMaeUgbh2aC-8" value="int interval;" style="rounded=1;whiteSpace=wrap;html=1;absoluteArcSize=1;arcSize=14;strokeWidth=2;" vertex="1" parent="1">
          <mxGeometry x="75" y="100" width="100" height="30" as="geometry" />
        </mxCell>
        <mxCell id="O0U2v2NHdfMaeUgbh2aC-11" style="edgeStyle=orthogonalEdgeStyle;rounded=0;orthogonalLoop=1;jettySize=auto;html=1;entryX=0.5;entryY=0;entryDx=0;entryDy=0;entryPerimeter=0;" edge="1" parent="1" source="O0U2v2NHdfMaeUgbh2aC-10" target="O0U2v2NHdfMaeUgbh2aC-12">
          <mxGeometry relative="1" as="geometry">
            <mxPoint x="125" y="260" as="targetPoint" />
          </mxGeometry>
        </mxCell>
        <mxCell id="O0U2v2NHdfMaeUgbh2aC-10" value="interval = size / 2; interval /= 2" style="strokeWidth=2;html=1;shape=mxgraph.flowchart.loop_limit;whiteSpace=wrap;" vertex="1" parent="1">
          <mxGeometry x="41.25" y="150" width="167.5" height="60" as="geometry" />
        </mxCell>
        <mxCell id="O0U2v2NHdfMaeUgbh2aC-14" style="edgeStyle=orthogonalEdgeStyle;rounded=0;orthogonalLoop=1;jettySize=auto;html=1;" edge="1" parent="1" source="O0U2v2NHdfMaeUgbh2aC-12" target="O0U2v2NHdfMaeUgbh2aC-13">
          <mxGeometry relative="1" as="geometry" />
        </mxCell>
        <mxCell id="O0U2v2NHdfMaeUgbh2aC-12" value="int i = 0; i++" style="strokeWidth=2;html=1;shape=mxgraph.flowchart.loop_limit;whiteSpace=wrap;" vertex="1" parent="1">
          <mxGeometry x="75" y="250" width="100" height="60" as="geometry" />
        </mxCell>
        <mxCell id="O0U2v2NHdfMaeUgbh2aC-16" style="edgeStyle=orthogonalEdgeStyle;rounded=0;orthogonalLoop=1;jettySize=auto;html=1;entryX=0.5;entryY=0;entryDx=0;entryDy=0;entryPerimeter=0;" edge="1" parent="1" source="O0U2v2NHdfMaeUgbh2aC-13" target="O0U2v2NHdfMaeUgbh2aC-15">
          <mxGeometry relative="1" as="geometry" />
        </mxCell>
        <mxCell id="O0U2v2NHdfMaeUgbh2aC-13" value="insertionSort(v, i, size - 1, interval);" style="rounded=1;whiteSpace=wrap;html=1;absoluteArcSize=1;arcSize=14;strokeWidth=2;" vertex="1" parent="1">
          <mxGeometry x="27.5" y="340" width="195" height="40" as="geometry" />
        </mxCell>
        <mxCell id="O0U2v2NHdfMaeUgbh2aC-17" value="true" style="edgeStyle=orthogonalEdgeStyle;rounded=0;orthogonalLoop=1;jettySize=auto;html=1;" edge="1" parent="1" source="O0U2v2NHdfMaeUgbh2aC-15" target="O0U2v2NHdfMaeUgbh2aC-18">
          <mxGeometry relative="1" as="geometry">
            <mxPoint x="125" y="550" as="targetPoint" />
          </mxGeometry>
        </mxCell>
        <mxCell id="O0U2v2NHdfMaeUgbh2aC-19" value="false" style="edgeStyle=orthogonalEdgeStyle;rounded=0;orthogonalLoop=1;jettySize=auto;html=1;" edge="1" parent="1" source="O0U2v2NHdfMaeUgbh2aC-15" target="O0U2v2NHdfMaeUgbh2aC-20">
          <mxGeometry relative="1" as="geometry">
            <mxPoint x="220" y="610" as="targetPoint" />
            <Array as="points">
              <mxPoint x="230" y="460" />
              <mxPoint x="230" y="620" />
              <mxPoint x="125" y="620" />
            </Array>
          </mxGeometry>
        </mxCell>
        <mxCell id="O0U2v2NHdfMaeUgbh2aC-15" value="(interval % 2) == 0" style="strokeWidth=2;html=1;shape=mxgraph.flowchart.decision;whiteSpace=wrap;" vertex="1" parent="1">
          <mxGeometry x="75" y="410" width="100" height="100" as="geometry" />
        </mxCell>
        <mxCell id="O0U2v2NHdfMaeUgbh2aC-21" style="edgeStyle=orthogonalEdgeStyle;rounded=0;orthogonalLoop=1;jettySize=auto;html=1;entryX=0.5;entryY=1;entryDx=0;entryDy=0;entryPerimeter=0;" edge="1" parent="1" source="O0U2v2NHdfMaeUgbh2aC-18" target="O0U2v2NHdfMaeUgbh2aC-20">
          <mxGeometry relative="1" as="geometry" />
        </mxCell>
        <mxCell id="O0U2v2NHdfMaeUgbh2aC-18" value="interval++;" style="rounded=1;whiteSpace=wrap;html=1;absoluteArcSize=1;arcSize=14;strokeWidth=2;" vertex="1" parent="1">
          <mxGeometry x="75" y="560" width="100" height="30" as="geometry" />
        </mxCell>
        <mxCell id="O0U2v2NHdfMaeUgbh2aC-22" style="edgeStyle=orthogonalEdgeStyle;rounded=0;orthogonalLoop=1;jettySize=auto;html=1;" edge="1" parent="1" source="O0U2v2NHdfMaeUgbh2aC-20" target="O0U2v2NHdfMaeUgbh2aC-23">
          <mxGeometry relative="1" as="geometry">
            <mxPoint x="125" y="760" as="targetPoint" />
          </mxGeometry>
        </mxCell>
        <mxCell id="O0U2v2NHdfMaeUgbh2aC-20" value="" style="strokeWidth=2;html=1;shape=mxgraph.flowchart.loop_limit;whiteSpace=wrap;rotation=-179;" vertex="1" parent="1">
          <mxGeometry x="75" y="650" width="100" height="60" as="geometry" />
        </mxCell>
        <mxCell id="O0U2v2NHdfMaeUgbh2aC-23" value="" style="strokeWidth=2;html=1;shape=mxgraph.flowchart.loop_limit;whiteSpace=wrap;rotation=-180;" vertex="1" parent="1">
          <mxGeometry x="75" y="740" width="100" height="60" as="geometry" />
        </mxCell>
        <mxCell id="O0U2v2NHdfMaeUgbh2aC-25" style="edgeStyle=orthogonalEdgeStyle;rounded=0;orthogonalLoop=1;jettySize=auto;html=1;" edge="1" parent="1" source="O0U2v2NHdfMaeUgbh2aC-24" target="O0U2v2NHdfMaeUgbh2aC-26">
          <mxGeometry relative="1" as="geometry">
            <mxPoint x="420" y="110" as="targetPoint" />
          </mxGeometry>
        </mxCell>
        <mxCell id="O0U2v2NHdfMaeUgbh2aC-24" value="void insertionSort(int* v,int left,int right,int interval)" style="rounded=1;whiteSpace=wrap;html=1;absoluteArcSize=1;arcSize=14;strokeWidth=2;" vertex="1" parent="1">
          <mxGeometry x="280" y="30" width="280" height="50" as="geometry" />
        </mxCell>
        <mxCell id="O0U2v2NHdfMaeUgbh2aC-28" style="edgeStyle=orthogonalEdgeStyle;rounded=0;orthogonalLoop=1;jettySize=auto;html=1;entryX=0.5;entryY=0;entryDx=0;entryDy=0;entryPerimeter=0;" edge="1" parent="1" source="O0U2v2NHdfMaeUgbh2aC-26" target="O0U2v2NHdfMaeUgbh2aC-27">
          <mxGeometry relative="1" as="geometry" />
        </mxCell>
        <mxCell id="O0U2v2NHdfMaeUgbh2aC-26" value="int i,j,temp;" style="rounded=1;whiteSpace=wrap;html=1;absoluteArcSize=1;arcSize=14;strokeWidth=2;" vertex="1" parent="1">
          <mxGeometry x="370" y="110" width="100" height="40" as="geometry" />
        </mxCell>
        <mxCell id="O0U2v2NHdfMaeUgbh2aC-29" style="edgeStyle=orthogonalEdgeStyle;rounded=0;orthogonalLoop=1;jettySize=auto;html=1;" edge="1" parent="1" source="O0U2v2NHdfMaeUgbh2aC-27" target="O0U2v2NHdfMaeUgbh2aC-30">
          <mxGeometry relative="1" as="geometry">
            <mxPoint x="420" y="300" as="targetPoint" />
          </mxGeometry>
        </mxCell>
        <mxCell id="O0U2v2NHdfMaeUgbh2aC-27" value="i = left+ interval; i+= interval" style="strokeWidth=2;html=1;shape=mxgraph.flowchart.loop_limit;whiteSpace=wrap;" vertex="1" parent="1">
          <mxGeometry x="335" y="190" width="170" height="60" as="geometry" />
        </mxCell>
        <mxCell id="O0U2v2NHdfMaeUgbh2aC-31" style="edgeStyle=orthogonalEdgeStyle;rounded=0;orthogonalLoop=1;jettySize=auto;html=1;" edge="1" parent="1" source="O0U2v2NHdfMaeUgbh2aC-30" target="O0U2v2NHdfMaeUgbh2aC-32">
          <mxGeometry relative="1" as="geometry">
            <mxPoint x="420" y="370" as="targetPoint" />
          </mxGeometry>
        </mxCell>
        <mxCell id="O0U2v2NHdfMaeUgbh2aC-30" value="temp = v[i];" style="rounded=1;whiteSpace=wrap;html=1;absoluteArcSize=1;arcSize=14;strokeWidth=2;" vertex="1" parent="1">
          <mxGeometry x="370" y="290" width="100" height="40" as="geometry" />
        </mxCell>
        <mxCell id="O0U2v2NHdfMaeUgbh2aC-33" style="edgeStyle=orthogonalEdgeStyle;rounded=0;orthogonalLoop=1;jettySize=auto;html=1;" edge="1" parent="1" source="O0U2v2NHdfMaeUgbh2aC-32" target="O0U2v2NHdfMaeUgbh2aC-34">
          <mxGeometry relative="1" as="geometry">
            <mxPoint x="420" y="450" as="targetPoint" />
          </mxGeometry>
        </mxCell>
        <mxCell id="O0U2v2NHdfMaeUgbh2aC-32" value="j = i - interval; j-= interval" style="strokeWidth=2;html=1;shape=mxgraph.flowchart.loop_limit;whiteSpace=wrap;" vertex="1" parent="1">
          <mxGeometry x="330" y="360" width="180" height="60" as="geometry" />
        </mxCell>
        <mxCell id="O0U2v2NHdfMaeUgbh2aC-35" style="edgeStyle=orthogonalEdgeStyle;rounded=0;orthogonalLoop=1;jettySize=auto;html=1;" edge="1" parent="1" source="O0U2v2NHdfMaeUgbh2aC-34" target="O0U2v2NHdfMaeUgbh2aC-36">
          <mxGeometry relative="1" as="geometry">
            <mxPoint x="420" y="530" as="targetPoint" />
          </mxGeometry>
        </mxCell>
        <mxCell id="O0U2v2NHdfMaeUgbh2aC-34" value="v[j + interval] = v[j];" style="rounded=1;whiteSpace=wrap;html=1;absoluteArcSize=1;arcSize=14;strokeWidth=2;" vertex="1" parent="1">
          <mxGeometry x="355" y="450" width="130" height="40" as="geometry" />
        </mxCell>
        <mxCell id="O0U2v2NHdfMaeUgbh2aC-37" style="edgeStyle=orthogonalEdgeStyle;rounded=0;orthogonalLoop=1;jettySize=auto;html=1;" edge="1" parent="1" source="O0U2v2NHdfMaeUgbh2aC-36" target="O0U2v2NHdfMaeUgbh2aC-38">
          <mxGeometry relative="1" as="geometry">
            <mxPoint x="420" y="620" as="targetPoint" />
          </mxGeometry>
        </mxCell>
        <mxCell id="O0U2v2NHdfMaeUgbh2aC-36" value="" style="strokeWidth=2;html=1;shape=mxgraph.flowchart.loop_limit;whiteSpace=wrap;rotation=-180;" vertex="1" parent="1">
          <mxGeometry x="340" y="524.5" width="160" height="60" as="geometry" />
        </mxCell>
        <mxCell id="O0U2v2NHdfMaeUgbh2aC-39" style="edgeStyle=orthogonalEdgeStyle;rounded=0;orthogonalLoop=1;jettySize=auto;html=1;" edge="1" parent="1" source="O0U2v2NHdfMaeUgbh2aC-38" target="O0U2v2NHdfMaeUgbh2aC-40">
          <mxGeometry relative="1" as="geometry">
            <mxPoint x="420" y="690" as="targetPoint" />
          </mxGeometry>
        </mxCell>
        <mxCell id="O0U2v2NHdfMaeUgbh2aC-38" value="v[j + interval]= temp;" style="rounded=1;whiteSpace=wrap;html=1;absoluteArcSize=1;arcSize=14;strokeWidth=2;" vertex="1" parent="1">
          <mxGeometry x="360" y="610" width="120" height="40" as="geometry" />
        </mxCell>
        <mxCell id="O0U2v2NHdfMaeUgbh2aC-40" value="" style="strokeWidth=2;html=1;shape=mxgraph.flowchart.loop_limit;whiteSpace=wrap;rotation=-180;" vertex="1" parent="1">
          <mxGeometry x="370" y="680" width="100" height="60" as="geometry" />
        </mxCell>
        <mxCell id="O0U2v2NHdfMaeUgbh2aC-41" value="&lt;span style=&quot;color: rgb(0, 0, 0); font-family: Helvetica; font-size: 12px; font-style: normal; font-variant-ligatures: normal; font-variant-caps: normal; font-weight: 400; letter-spacing: normal; orphans: 2; text-align: center; text-indent: 0px; text-transform: none; widows: 2; word-spacing: 0px; -webkit-text-stroke-width: 0px; background-color: rgb(248, 249, 250); text-decoration-thickness: initial; text-decoration-style: initial; text-decoration-color: initial; float: none; display: inline !important;&quot;&gt;&lt;span&gt;&amp;nbsp;&lt;/span&gt;i &amp;lt; interval&lt;/span&gt;" style="text;html=1;strokeColor=none;fillColor=none;align=center;verticalAlign=middle;whiteSpace=wrap;rounded=0;" vertex="1" parent="1">
          <mxGeometry x="90" y="665" width="70" height="30" as="geometry" />
        </mxCell>
        <mxCell id="O0U2v2NHdfMaeUgbh2aC-42" value="interval &amp;gt; 0" style="text;html=1;strokeColor=none;fillColor=none;align=center;verticalAlign=middle;whiteSpace=wrap;rounded=0;" vertex="1" parent="1">
          <mxGeometry x="90" y="755" width="70" height="30" as="geometry" />
        </mxCell>
        <mxCell id="O0U2v2NHdfMaeUgbh2aC-43" value="&amp;nbsp;i &amp;lt;= right" style="text;html=1;strokeColor=none;fillColor=none;align=center;verticalAlign=middle;whiteSpace=wrap;rounded=0;" vertex="1" parent="1">
          <mxGeometry x="390" y="695" width="60" height="30" as="geometry" />
        </mxCell>
        <mxCell id="O0U2v2NHdfMaeUgbh2aC-44" value="&#xa;&lt;span style=&quot;color: rgb(0, 0, 0); font-family: Helvetica; font-size: 12px; font-style: normal; font-variant-ligatures: normal; font-variant-caps: normal; font-weight: 400; letter-spacing: normal; orphans: 2; text-align: center; text-indent: 0px; text-transform: none; widows: 2; word-spacing: 0px; -webkit-text-stroke-width: 0px; background-color: rgb(248, 249, 250); text-decoration-thickness: initial; text-decoration-style: initial; text-decoration-color: initial; float: none; display: inline !important;&quot;&gt;&lt;span&gt;&amp;nbsp;&lt;/span&gt;j &amp;gt;= left &amp;amp;&amp;amp; v[j] &amp;gt; temp&lt;/span&gt;&#xa;&#xa;" style="text;html=1;strokeColor=none;fillColor=none;align=center;verticalAlign=middle;whiteSpace=wrap;rounded=0;" vertex="1" parent="1">
          <mxGeometry x="355" y="539.5" width="130" height="30" as="geometry" />
        </mxCell>
      </root>
    </mxGraphModel>
  </diagram>
</mxfile>
